<svg xmlns="http://www.w3.org/2000/svg" viewBox="0 0 64 64" width="1024" height="1024" fill="none">
  <rect width="64" height="64" rx="14" fill="#FFFDF8"/>
  <g transform="translate(8 8)">
    <path d="M12.5 3h23C41.8 3 45 6.9 45 13v21.5C45 41.2 41 45 34.4 45H13.2C6.6 45 3 41 3 34.5V12.8C3 6.7 6.8 3 12.5 3Z" fill="#171714"/>
    <path d="M14 15h16.5a4.5 4.5 0 0 1 0 9H18a4.5 4.5 0 0 0 0 9h16" stroke="#FFFDF8" stroke-width="5" stroke-linecap="round"/>
    <circle cx="13.5" cy="15" r="4.5" fill="#D9FF67" stroke="#171714" stroke-width="2"/>
    <circle cx="34.5" cy="33" r="4.5" fill="#FF5F35" stroke="#171714" stroke-width="2"/>
  </g>
</svg>
